
<svg xmlns="http://www.w3.org/2000/svg" width="72" height="72" viewBox="0 0 72 72">
  <g id="Group_5056" data-name="Group 5056" transform="translate(-101 -1969)">
    <circle id="Ellipse_100" data-name="Ellipse 100" cx="36" cy="36" r="36" transform="translate(101 1969)" fill="#afafaf"/>
    <g id="svgexport-6_2_" data-name="svgexport-6 (2)" transform="translate(114.997 1980.611)">
      <path id="Path_11668" data-name="Path 11668" d="M40.165,17.78,22.879,10.475a1.072,1.072,0,0,0-.842,0L4.658,17.754a1.1,1.1,0,0,0,0,2.019c1.026.441,7.036,2.959,7.89,3.327l9.495,4a1.1,1.1,0,0,0,.842,0l13.854-5.859v8.673c-1.315.329-1.835,2.558-1.1,3.761l-.967,4.34a.658.658,0,0,0,1.032.658,2.827,2.827,0,0,1,1.611-.552,2.788,2.788,0,0,1,1.716.559.658.658,0,0,0,1.026-.71l-1.2-4.32a2.825,2.825,0,0,0-.769-3.577v-9.39l2.084-.894a1.1,1.1,0,0,0,0-2.012Z" fill="#fff"/>
      <path id="Path_11669" data-name="Path 11669" d="M25.29,35.373,15,31v6.4a2.124,2.124,0,0,0,.94,1.736A18.325,18.325,0,0,0,25.718,42.3,18.74,18.74,0,0,0,36.495,39.16a2.144,2.144,0,0,0,.967-1.762V31l-10.3,4.373a2.479,2.479,0,0,1-1.867,0Z" transform="translate(-3.766 -7.059)" fill="#fff"/>
    </g>
  </g>
</svg>
