<svg xmlns="http://www.w3.org/2000/svg" width="42.025" height="58.458" viewBox="0 0 42.025 58.458">
    <g data-name="svgexport-6 (4)">
        <path data-name="Path 5451" d="M102.326 40.969 105 36.631l4.824-1.645.534-5.067 3.63-3.573-1.726-4.8 1.726-4.8-3.629-3.573-.534-5.067L105 6.468l-2.673-4.338-5.056.61L92.975 0l-4.3 2.741-5.056-.61-2.669 4.338-4.824 1.645-.534 5.067-3.63 3.573 1.726 4.8-1.726 4.8 3.629 3.573.534 5.067 4.824 1.645 2.673 4.338 5.056-.61 4.3 2.741 4.3-2.741zM78.2 21.55a14.778 14.778 0 1 1 14.775 14.778A14.794 14.794 0 0 1 78.2 21.55z" transform="translate(-71.962)" style="fill:#afafaf"/>
        <path data-name="Path 5452" d="M167.94 89.333a11.35 11.35 0 1 0 11.35 11.35 11.363 11.363 0 0 0-11.35-11.35z" transform="translate(-146.927 -79.133)" style="fill:#afafaf"/>
        <path data-name="Path 5453" d="m95.444 347.334-6.015.726-3.178-5.16-1.08-.368-4.66 14.568 8.389-.461 6.563 5.245 3.862-12.072z" transform="translate(-79.535 -303.426)" style="fill:#afafaf"/>
        <path data-name="Path 5454" d="m279.776 342.9-3.176 5.16-6.015-.726-3.882 2.478 3.862 12.072 6.563-5.245 8.389.461-4.66-14.565z" transform="translate(-244.466 -303.426)" style="fill:#afafaf"/>
    </g>
</svg>
