
<svg xmlns="http://www.w3.org/2000/svg" width="84.999" height="74" viewBox="0 0 84.999 74">
  <g id="Group_2151" data-name="Group 2151" transform="translate(-465.888 -136.061)" opacity="0.35" style="mix-blend-mode: normal;isolation: isolate">
    <path id="Path_2001" data-name="Path 2001" d="M486.941,155.27V164.6H467.228V155.27a4.468,4.468,0,0,1,4.468-4.47h10.775A4.468,4.468,0,0,1,486.941,155.27Z" transform="translate(-0.354 -3.896)" fill="#3886b9"/>
    <path id="Path_2002" data-name="Path 2002" d="M467.228,169.557v37.455h19.713V169.557Z" transform="translate(-0.354 -7.794)" fill="#3886b9"/>
    <path id="Path_2003" data-name="Path 2003" d="M507.823,170.82v11.828h-13.8V170.294a3.416,3.416,0,0,1,3.416-3.416h6.966a3.416,3.416,0,0,1,3.416,3.416Z" transform="translate(-7.078 -7.726)" fill="#3886b9"/>
    <path id="Path_2004" data-name="Path 2004" d="M576.388,142.76a1.971,1.971,0,1,1-1.971,1.972A1.972,1.972,0,0,1,576.388,142.76Z" transform="translate(-27.472 -1.771)" fill="#002f59"/>
    <path id="Path_2005" data-name="Path 2005" d="M568.625,158.838a4.928,4.928,0,1,1-4.927,4.928A4.927,4.927,0,0,1,568.625,158.838Z" transform="translate(-24.638 -5.739)" fill="#cdd7e8"/>
    <path id="Path_2006" data-name="Path 2006" d="M556.856,190.963c17.43,0,5.878,31.565-3.714,31.565a11.637,11.637,0,0,1-2.727-.5,6.374,6.374,0,0,0-3.418,0,11.679,11.679,0,0,1-2.727.5c-3.988,0-8.314-5.457-10.757-11.833-2.307-6.02-2.93-12.86,0-16.7v0c1.428-1.871,3.705-3.029,7.046-3.029a9.266,9.266,0,0,1,6.949,3.13,9.024,9.024,0,0,1,1.2,1.717,8.925,8.925,0,0,1,1.306-1.839A9.275,9.275,0,0,1,556.856,190.963Z" transform="translate(-16.137 -13.453)" fill="#cdd7e8"/>
    <path id="Path_2007" data-name="Path 2007" d="M554.068,181.689a2.412,2.412,0,0,1,2.407,2.588l-1.146,7.242a8.917,8.917,0,0,0-1.306,1.839,9.014,9.014,0,0,0-1.2-1.717l-1.166-7.365A2.416,2.416,0,0,1,554.068,181.689Z" transform="translate(-21.698 -11.481)" fill="#62605f"/>
    <path id="Path_2008" data-name="Path 2008" d="M549.591,158.838a1.972,1.972,0,1,1-1.971,1.972A1.973,1.973,0,0,1,549.591,158.838Z" transform="translate(-20.689 -5.764)" fill="#002f59"/>
    <path id="Path_2009" data-name="Path 2009" d="M528.554,205.745v1.976H512.782V172.237h15.772v16.808C525.623,192.884,526.247,199.725,528.554,205.745Z" transform="translate(-11.779 -8.502)" fill="#3886b9"/>
    <path id="Path_2010" data-name="Path 2010" d="M528.554,162.255v6.44H512.782v-6.44a3.418,3.418,0,0,1,3.416-3.417h8.939A3.417,3.417,0,0,1,528.554,162.255Z" transform="translate(-11.779 -5.739)" fill="#3886b9"/>
    <path id="Path_2011" data-name="Path 2011" d="M525.472,145.44a1.972,1.972,0,1,1-1.969,1.971A1.973,1.973,0,0,1,525.472,145.44Z" transform="translate(-14.584 -2.479)" fill="#002f59"/>
    <path id="Path_2012" data-name="Path 2012" d="M507.823,218.347v6.44a3.417,3.417,0,0,1-3.416,3.417h-6.966a3.417,3.417,0,0,1-3.416-3.417V212.434h13.8Z" transform="translate(-7.078 -19.129)" fill="#3886b9"/>
    <rect id="Rectangle_1351" data-name="Rectangle 1351" width="13.799" height="17.743" transform="translate(486.947 175.24)" fill="#3886b9"/>
    <path id="Path_2013" data-name="Path 2013" d="M506.006,137.4a3.942,3.942,0,1,1-3.942,3.942A3.942,3.942,0,0,1,506.006,137.4Z" transform="translate(-9.136 -0.354)" fill="#cdd7e8"/>
    <path id="Path_2014" data-name="Path 2014" d="M477.239,137.4a1.971,1.971,0,1,1-1.972,1.972A1.972,1.972,0,0,1,477.239,137.4Z" transform="translate(-2.479 -0.354)" fill="#002f59"/>
    <path id="Path_2015" data-name="Path 2015" d="M474.559,204.394a1.971,1.971,0,1,1-1.972,1.971A1.971,1.971,0,0,1,474.559,204.394Z" transform="translate(-1.771 -17.291)" fill="#002f59"/>
    <path id="Path_2016" data-name="Path 2016" d="M552.47,192.273a.985.985,0,0,1-.972-.831l-1.167-7.365c-.005-.028-.007-.056-.01-.085a3.4,3.4,0,1,1,6.784,0c0,.029,0,.055-.007.083l-1.148,7.243a.986.986,0,0,1-1.947-.308l1.139-7.2a1.429,1.429,0,1,0-2.855,0l1.161,7.317a.987.987,0,0,1-.821,1.128A.845.845,0,0,1,552.47,192.273Z" transform="translate(-21.335 -11.141)" fill="#002f59"/>
    <path id="Path_2017" data-name="Path 2017" d="M567.2,209.545a.973.973,0,0,1-.353-.065.983.983,0,0,1-.566-1.273c1.139-2.972,1.225-5.837.22-7.3a3.151,3.151,0,0,0-2.824-1.242.986.986,0,0,1,0-1.972,5.057,5.057,0,0,1,4.449,2.1c1.4,2.041,1.4,5.45-.005,9.121A.986.986,0,0,1,567.2,209.545Z" transform="translate(-24.373 -15.506)" fill="#002f59"/>
    <path id="Path_2018" data-name="Path 2018" d="M482.117,213.6H471.342a5.508,5.508,0,0,1-5.454-5.547V155.007a5.507,5.507,0,0,1,5.454-5.547h10.775a5.506,5.506,0,0,1,5.454,5.547v10.955a.985.985,0,1,1-1.969,0V155.007a3.517,3.517,0,0,0-3.485-3.543H471.342a3.518,3.518,0,0,0-3.483,3.543v53.049a3.517,3.517,0,0,0,3.483,3.543h10.775a3.517,3.517,0,0,0,3.485-3.543.985.985,0,1,1,1.969,0A5.507,5.507,0,0,1,482.117,213.6Z" transform="translate(0 -3.542)" fill="#002f59"/>
    <path id="Path_2019" data-name="Path 2019" d="M504.053,216.792h-6.966a4.408,4.408,0,0,1-4.4-4.4V169.94a4.408,4.408,0,0,1,4.4-4.4h6.966a4.408,4.408,0,0,1,4.4,4.4.986.986,0,0,1-1.971,0,2.434,2.434,0,0,0-2.431-2.431h-6.966a2.435,2.435,0,0,0-2.432,2.431v42.45a2.435,2.435,0,0,0,2.432,2.431h6.966a2.434,2.434,0,0,0,2.431-2.431.986.986,0,0,1,1.971,0A4.408,4.408,0,0,1,504.053,216.792Z" transform="translate(-6.731 -6.731)" fill="#002f59"/>
    <path id="Path_2020" data-name="Path 2020" d="M524.783,214.668h-8.939a4.407,4.407,0,0,1-4.4-4.4V161.9a4.405,4.405,0,0,1,4.4-4.4h8.939a4.406,4.406,0,0,1,4.4,4.4v23.245a.986.986,0,1,1-1.972,0V161.9a2.434,2.434,0,0,0-2.43-2.431h-8.939a2.433,2.433,0,0,0-2.43,2.431v48.363a2.433,2.433,0,0,0,2.43,2.431h8.939a2.434,2.434,0,0,0,2.43-2.431v-8.416a.986.986,0,0,1,1.972,0v8.416A4.407,4.407,0,0,1,524.783,214.668Z" transform="translate(-11.424 -4.607)" fill="#002f59"/>
    <path id="Path_2021" data-name="Path 2021" d="M486.587,170.189H466.874a.986.986,0,1,1,0-1.972h19.713a.986.986,0,0,1,0,1.972Z" transform="translate(0 -8.147)" fill="#002f59"/>
    <path id="Path_2022" data-name="Path 2022" d="M507.469,188.947h-13.8a.986.986,0,0,1,0-1.972h13.8a.986.986,0,1,1,0,1.972Z" transform="translate(-6.731 -12.9)" fill="#002f59"/>
    <path id="Path_2023" data-name="Path 2023" d="M528.2,172.869H512.428a.986.986,0,0,1,0-1.972H528.2a.986.986,0,1,1,0,1.972Z" transform="translate(-11.424 -8.826)" fill="#002f59"/>
    <path id="Path_2024" data-name="Path 2024" d="M507.469,213.064h-13.8a.985.985,0,0,1,0-1.971h13.8a.985.985,0,1,1,0,1.971Z" transform="translate(-6.731 -19.01)" fill="#002f59"/>
    <path id="Path_2025" data-name="Path 2025" d="M505.652,145.918a4.928,4.928,0,1,1,4.929-4.929A4.935,4.935,0,0,1,505.652,145.918Zm0-7.885a2.957,2.957,0,1,0,2.957,2.957A2.961,2.961,0,0,0,505.652,138.033Z" transform="translate(-8.787 0)" fill="#002f59"/>
    <path id="Path_2026" data-name="Path 2026" d="M568.271,169.327a5.913,5.913,0,1,1,5.914-5.915A5.922,5.922,0,0,1,568.271,169.327Zm0-9.857a3.943,3.943,0,1,0,3.943,3.942A3.947,3.947,0,0,0,568.271,159.47Z" transform="translate(-24.283 -5.394)" fill="#002f59"/>
    <path id="Path_2027" data-name="Path 2027" d="M474.913,194.707a.986.986,0,0,1-.986-.986v-13.8a.986.986,0,1,1,1.971,0v13.8A.985.985,0,0,1,474.913,194.707Z" transform="translate(-2.125 -10.749)" fill="#002f59"/>
    <path id="Path_2028" data-name="Path 2028" d="M552.792,223.159a12.067,12.067,0,0,1-2.99-.531,5.408,5.408,0,0,0-2.892,0,12.067,12.067,0,0,1-2.99.531c-4.766,0-9.3-6.261-11.677-12.465-2.147-5.6-3.241-13.161.1-17.6.017-.026.035-.049.054-.074,1.732-2.251,4.357-3.394,7.811-3.394a10.267,10.267,0,0,1,7.69,3.464c.158.18.311.365.457.555.182-.238.376-.47.582-.692a10.276,10.276,0,0,1,7.568-3.327c3.4,0,6.005,1.113,7.74,3.307a12.189,12.189,0,0,1,2.259,7.724C566.505,210.065,559.6,223.159,552.792,223.159Zm-4.436-2.7a7.37,7.37,0,0,1,1.974.269,10.606,10.606,0,0,0,2.462.459c5.159,0,11.742-11.515,11.742-20.535a10.421,10.421,0,0,0-1.836-6.5c-1.339-1.7-3.424-2.557-6.191-2.557a8.3,8.3,0,0,0-6.115,2.686,7.965,7.965,0,0,0-1.166,1.64.985.985,0,0,1-.869.521h0a.985.985,0,0,1-.87-.521,7.919,7.919,0,0,0-1.064-1.528,8.286,8.286,0,0,0-6.213-2.8c-2.8,0-4.9.876-6.235,2.606a.32.32,0,0,1-.028.037c-2.895,3.792-1.827,10.623.138,15.751,2.485,6.488,6.622,11.2,9.836,11.2a10.676,10.676,0,0,0,2.465-.459A7.329,7.329,0,0,1,548.356,220.459Z" transform="translate(-15.787 -13.098)" fill="#002f59"/>
    <path id="Path_2029" data-name="Path 2029" d="M524.409,180.908h-3.942a.986.986,0,0,1,0-1.972h3.942a.986.986,0,1,1,0,1.972Z" transform="translate(-13.551 -10.863)" fill="#002f59"/>
    <path id="Path_2030" data-name="Path 2030" d="M524.409,188.947h-3.942a.986.986,0,1,1,0-1.972h3.942a.986.986,0,1,1,0,1.972Z" transform="translate(-13.551 -12.9)" fill="#002f59"/>
  </g>
</svg>
