
<svg xmlns="http://www.w3.org/2000/svg" width="75.154" height="75.154" viewBox="0 0 75.154 75.154">
  <g id="svgexport-6_5_" data-name="svgexport-6 (5)" opacity="0.35">
    <g id="Group_5098" data-name="Group 5098" transform="translate(0 0)">
      <g id="Group_5096" data-name="Group 5096" transform="translate(1.101 1.101)">
        <path id="Path_11688" data-name="Path 11688" d="M118.693,89.83a33.893,33.893,0,0,0-12.07-25.968C100.71,58.872,84.1,58.3,84.1,58.3l-12.038.069c-.09.038-.2.012-.287.05-11.8,5.12-19.456,17.252-19.456,31.354,0,18.759,13.986,31.524,32.745,31.524,5.64,0,10.621,1.124,15.3-1.309A33.963,33.963,0,0,0,118.693,89.83Z" transform="translate(-45.74 -50.843)" fill="#94ccd4"/>
        <path id="Path_11689" data-name="Path 11689" d="M218.625,49.7c-3.454,2.259-7.162,4.5-8.552,4.8-3.815,1.116-8.781-1.248-9.8,4.379a22.1,22.1,0,0,1-.288,3.081,7.946,7.946,0,0,1-1.161,2.984c-.58.9-2.123,1.16-3.021,1.777a6.1,6.1,0,0,1-7.146.415l-.205-.109c-4.436-2.174-7.042-7.173-2.443-10.827,3.022-2.5,2.565-6.9.453-9.648l-1.271-1.471c.987-.408.585-1.6,1.616-1.911A34.028,34.028,0,0,1,218.625,49.7Z" transform="translate(-157.743 -36.68)" fill="#b7e546"/>
        <path id="Path_11690" data-name="Path 11690" d="M372.417,160.184a10.577,10.577,0,0,0-3.148-7.457c-1.7-1.949-2.293-3.11-4.634-.959-2.219,2.76-.03,6.186-4.747,10.893a4.356,4.356,0,0,0-1.257,3.208s0-.211,0-.211c.17,2.956,2.188,5.338,5.066,5.338C367.39,171,372.417,166.658,372.417,160.184Z" transform="translate(-307.087 -129.605)" fill="#b7e546"/>
        <path id="Path_11691" data-name="Path 11691" d="M355.725,160.517a4.362,4.362,0,0,0-1.258,3.209s0,0,0,0a6.108,6.108,0,0,0,4.621,5.143,5.517,5.517,0,0,1-1.449.2c-2.877,0-5.937-2.391-6.108-5.347,0,0,0,0,0,0a4.362,4.362,0,0,1,1.258-3.209c4.716-4.706,1.983-8.383,4.2-11.143a3.094,3.094,0,0,1,3.793-.63,4.491,4.491,0,0,0-.857.63c-2.219,2.76.514,6.437-4.2,11.143Z" transform="translate(-301.03 -127.679)" fill="#abd641"/>
        <path id="Path_11692" data-name="Path 11692" d="M319.254,10.069V27.024l-1.08,1.026c0,1.419-1.613,1.632-3.032,1.632l-7.755-.058a1.712,1.712,0,0,0-1,.326l-6.4,4.443a.856.856,0,0,1-1.359-.693l.6-2.137a1.713,1.713,0,0,0-1.713-1.713h-2.055a2.569,2.569,0,0,1-2.569-2.569l-.31-15.905c0-1.419.564-2.915,1.982-2.915l.716-.96h21.407a2.569,2.569,0,0,1,2.569,2.569Z" transform="translate(-250.734 -7.5)" fill="#dc4955"/>
        <path id="Path_11693" data-name="Path 11693" d="M315.028,27.024v.856a2.569,2.569,0,0,1-2.569,2.569h-9.193a1.712,1.712,0,0,0-1,.325L295.321,35.8a.855.855,0,0,1-1.358-.694V32.161a1.713,1.713,0,0,0-1.713-1.713h-2.055a2.569,2.569,0,0,1-2.569-2.569V10.069A2.569,2.569,0,0,1,290.195,7.5h.856V26.681a.342.342,0,0,0,.342.342h.856a5.14,5.14,0,0,1,4.547,2.749.515.515,0,0,0,.758.182l2.7-1.954a5.108,5.108,0,0,1,3.014-.976Z" transform="translate(-246.507 -7.5)" fill="#d82f3c"/>
        <path id="Path_11694" data-name="Path 11694" d="M83.739,121.523a34.731,34.731,0,0,1-34.781-34.68A34.11,34.11,0,0,1,62.715,59.115,33.992,33.992,0,0,0,45.684,106.5s8.072,6.393,12.153,9.4c5.63,4.144,16.571,6.817,16.571,6.817s12.173.413,16.841-2a34.956,34.956,0,0,1-7.51.812Z" transform="translate(-36.68 -51.539)" fill="#6fbbc6"/>
        <path id="Path_11695" data-name="Path 11695" d="M114.483,312.729c-2.729-3.8-7.749-7.993-7.533-13.04a13.659,13.659,0,0,0-.72-5.075c-.009-.022-.016-.044-.023-.065a7.594,7.594,0,0,0-1.253-2.217c-1.479-1.838-4.636-6.632-6.179-7.3a6.19,6.19,0,0,0-8.514,2.528c-1.369,3.462-1.746,8.206-5.321,10.073a5.7,5.7,0,0,1-6.843-1.02c-2.821-3.664-6.77-.121-9.228,1.94.977,1.825,4.962,3.162,6.251,4.781,5.347,6.717,10.107,9.306,17.942,10.712,7.288,1.323,14.767,2.145,21.344-1.272Z" transform="translate(-59.859 -243.586)" fill="#b7e546"/>
        <path id="Path_11696" data-name="Path 11696" d="M114.418,375.633a34,34,0,0,1-19.123,3.59h0a34.072,34.072,0,0,1-26.424-17.8c1.943-1.631,4.822-4.189,7.336-3.372a34.887,34.887,0,0,0,38.211,17.586Z" transform="translate(-59.862 -306.457)" fill="#abd641"/>
        <path id="Path_11697" data-name="Path 11697" d="M275.725,263.5V280.45l-1.08,1.026c0,1.419-1.613,1.632-3.032,1.632l-7.755-.058a1.713,1.713,0,0,0-1,.326l-6.4,4.443a.856.856,0,0,1-1.359-.693l.6-2.137a1.713,1.713,0,0,0-1.713-1.713h-2.055a2.569,2.569,0,0,1-2.569-2.569l-.31-15.905c0-1.419.564-2.915,1.982-2.915l.716-.96h21.407A2.569,2.569,0,0,1,275.725,263.5Z" transform="translate(-213.594 -223.728)" fill="#cdd7e8"/>
        <path id="Path_11698" data-name="Path 11698" d="M271.5,280.45v.856a2.569,2.569,0,0,1-2.569,2.569h-9.193a1.713,1.713,0,0,0-1,.325l-6.941,5.026a.855.855,0,0,1-1.358-.694v-2.946a1.713,1.713,0,0,0-1.713-1.713h-2.055a2.569,2.569,0,0,1-2.569-2.569V263.495a2.569,2.569,0,0,1,2.569-2.569h.856v19.181a.342.342,0,0,0,.342.342h.856a5.14,5.14,0,0,1,4.547,2.749.515.515,0,0,0,.758.182l2.7-1.954a5.109,5.109,0,0,1,3.014-.976Z" transform="translate(-209.369 -223.727)" fill="#b2bccc"/>
        <path id="Path_11699" data-name="Path 11699" d="M183.336,66.657l-.043.035a45.533,45.533,0,0,0-3.928,3.8,5.6,5.6,0,0,1,2.1-6.095c3.022-2.5,1.907-7.357-.205-10.108l-1.272-1.472q1.48-.612,3.029-1.084c.913,1.387,1.725,2.556,1.725,2.556C186.933,58.362,187.031,63.608,183.336,66.657Z" transform="translate(-153.956 -45.238)" fill="#abd641"/>
        <path id="Path_11700" data-name="Path 11700" d="M195.165,150.811c-.04.068-.081.134-.123.2a8.123,8.123,0,0,1-10.579,2.8l-.206-.109c-4.175-2.046-7.03-7.458-3.52-11.134-1.117,3.373,1.521,7.267,5.071,8.932l.214.109a8.8,8.8,0,0,0,8.721-.5C194.888,151.013,195.029,150.915,195.165,150.811Z" transform="translate(-153.961 -122.744)" fill="#abd641"/>
        <g id="Group_5095" data-name="Group 5095" transform="translate(24.533 69.173)">
          <path id="Path_11701" data-name="Path 11701" d="M246.362,502.945l.028,0Z" transform="translate(-235.834 -499.394)" fill="#94ccd4"/>
          <path id="Path_11702" data-name="Path 11702" d="M174.635,482.535l.1.047Z" transform="translate(-174.635 -481.979)" fill="#94ccd4"/>
          <path id="Path_11703" data-name="Path 11703" d="M368.518,478.75q-.909.471-1.848.885.925-.41,1.823-.876l.012-.006Z" transform="translate(-338.482 -478.75)" fill="#94ccd4"/>
        </g>
        <path id="Path_11704" data-name="Path 11704" d="M15.553,117.891l.215,14.772a2.626,2.626,0,0,0,2.633,2.619l8.265.27a1.762,1.762,0,0,1,1.03.332l5.641,4.768a.878.878,0,0,0,1.392-.707l.356-2.305a1.751,1.751,0,0,1,1.755-1.746l2.728-.01c1.454,0,2.886-.345,2.886-1.792v-18.16a2.626,2.626,0,0,0-2.633-2.619H17c-1.454,0-1.451,3.132-1.451,4.578Z" transform="translate(-14.371 -97.781)" fill="#faf8f8"/>
        <path id="Path_11705" data-name="Path 11705" d="M35.583,133.773v.317a2.626,2.626,0,0,1-2.633,2.619H30.843a1.751,1.751,0,0,0-1.754,1.747v3a.878.878,0,0,1-1.393.706l-7.112-5.126a1.763,1.763,0,0,0-1.03-.332H10.133A2.626,2.626,0,0,1,7.5,134.09V115.93a2.626,2.626,0,0,1,2.633-2.62h.3v19.729a.734.734,0,0,0,.734.734h8.384a4.7,4.7,0,0,1,2.746.887l3.281,2.365a.589.589,0,0,0,.892-.272,4.7,4.7,0,0,1,4.37-2.98Z" transform="translate(-7.5 -97.779)" fill="#f0e9e6"/>
      </g>
      <g id="Group_5097" data-name="Group 5097">
        <path id="Path_11706" data-name="Path 11706" d="M70.734,23.032a3.692,3.692,0,0,0,.184-1.152V3.72A3.731,3.731,0,0,0,67.185,0H44.367a3.731,3.731,0,0,0-3.734,3.72V5.027a34.939,34.939,0,0,0-25.577,10.5h-3.9a1.1,1.1,0,1,0,0,2.2h15.4a1.527,1.527,0,0,1,1.532,1.518v18.16a1.527,1.527,0,0,1-1.532,1.518H24.445a2.855,2.855,0,0,0-2.856,2.847v2.564l-6.76-4.872a2.844,2.844,0,0,0-1.673-.54H3.734A1.527,1.527,0,0,1,2.2,37.412V19.252a1.527,1.527,0,0,1,1.532-1.518H6.018a1.1,1.1,0,1,0,0-2.2H3.734A3.731,3.731,0,0,0,0,19.252v18.16a3.731,3.731,0,0,0,3.734,3.72h1.3a35.056,35.056,0,0,0,60.389,23.2,1.1,1.1,0,1,0-1.591-1.522,33.018,33.018,0,0,1-8.141,6.227c-1.4-1.862-3.452-4.1-4.825-6.25l.262-.189a.655.655,0,0,1,.386-.124h9.422a3.731,3.731,0,0,0,3.734-3.72V40.589a3.7,3.7,0,0,0-.071-.719,12.737,12.737,0,0,0,2.929-8.2A11.649,11.649,0,0,0,65.78,25.6h1.4a3.722,3.722,0,0,0,2.088-.637,32.9,32.9,0,0,1-2.265,33.982,1.1,1.1,0,0,0,.269,1.533,1.15,1.15,0,0,0,1.533-.269,35.1,35.1,0,0,0,1.925-37.178Zm-44.183-7.5h-8.31A32.642,32.642,0,0,1,26.817,10l.736.849a8.592,8.592,0,0,1,1.754,5.9,3.73,3.73,0,0,0-2.756-1.213Zm25.64,52.64c.526.641,1.032,1.258,1.5,1.861a32.925,32.925,0,0,1-42.3-13.948c1.552-1.28,3.551-2.836,5.149-2.651A2.609,2.609,0,0,1,18.3,54.6c1.34,1.771,3.6,2.116,5.184,2.221a7.49,7.49,0,0,0,5.788-3.3,1.1,1.1,0,1,0-1.816-1.245,5.241,5.241,0,0,1-3.926,2.343c-1.8-.132-2.871-.549-3.474-1.346a4.746,4.746,0,0,0-3.267-2.024c-2.332-.27-4.625,1.368-6.434,2.837A32.643,32.643,0,0,1,7.24,41.133h5.915a.655.655,0,0,1,.386.124l7.112,5.125a1.979,1.979,0,0,0,3.137-1.6v-3a.651.651,0,0,1,.654-.645h2.106a3.731,3.731,0,0,0,3.734-3.72v-4.7a10.231,10.231,0,0,0,5.075,1.479,9.213,9.213,0,0,0,9.068-7.627c.053-.314.1-.636.14-.966h1.906a.65.65,0,0,1,.654.645v3A1.966,1.966,0,0,0,48.2,31.007a2.026,2.026,0,0,0,2.062-.156L54.8,27.585a8.412,8.412,0,0,1-2.722,5.583,5.476,5.476,0,0,0-1.574,3.7H38.122a3.731,3.731,0,0,0-3.734,3.72v.476a7.572,7.572,0,0,0-4.414,4.665c-.16.472-.41,1.277-.643,2.045a1.1,1.1,0,0,0,.731,1.375,1.153,1.153,0,0,0,1.375-.731c.156-.511.37-1.222.623-1.983A5.456,5.456,0,0,1,34.388,43.5V58.749a3.731,3.731,0,0,0,3.734,3.72h2.106a.65.65,0,0,1,.654.645v3a1.978,1.978,0,0,0,3.137,1.6l5.062-3.648a44.891,44.891,0,0,0,3.109,4.1Zm10.281-9.422a1.527,1.527,0,0,1-1.532,1.518H51.518a2.844,2.844,0,0,0-1.673.54l-6.76,4.872V63.115a2.855,2.855,0,0,0-2.856-2.847H38.122a1.527,1.527,0,0,1-1.532-1.518V40.589a1.527,1.527,0,0,1,1.532-1.519H60.94a1.527,1.527,0,0,1,1.532,1.519v18.16Zm2.858-27.07a10.589,10.589,0,0,1-1.916,6.126,3.725,3.725,0,0,0-2.473-.937H52.7a3.259,3.259,0,0,1,.934-2.15,10.953,10.953,0,0,0,3.44-8.039c.018-.271.037-.531.06-.782l.239-.172a.656.656,0,0,1,.386-.124h5.3a9.445,9.445,0,0,1,2.269,6.079Zm1.855-8.28H57.763a2.844,2.844,0,0,0-1.673.54l-.658.474-.007.005L49.33,28.811V26.246A2.855,2.855,0,0,0,46.474,23.4H44.367a1.527,1.527,0,0,1-1.532-1.518v-4.12a1.1,1.1,0,0,0-2.2,0v4.12a3.718,3.718,0,0,0,1.779,3.168c-.042.4-.093.781-.156,1.15a6.991,6.991,0,0,1-2.934,4.56,7.476,7.476,0,0,1-9.039-.712V20.093c2.362-3.115,1.18-8.07-1.3-10.96a33.222,33.222,0,0,1,11.651-1.9v5.4a1.1,1.1,0,1,0,2.2,0V3.72A1.527,1.527,0,0,1,44.367,2.2H67.185A1.527,1.527,0,0,1,68.716,3.72v18.16A1.527,1.527,0,0,1,67.185,23.4Z" transform="translate(0 0)"/>
        <path id="Path_11707" data-name="Path 11707" d="M340.859,32.473h-5.7V30.6a1.1,1.1,0,0,0-2.2,0v1.872h-5.7a1.1,1.1,0,1,0,0,2.2h2.283a15.729,15.729,0,0,0,3.03,6.33A13.644,13.644,0,0,1,328.7,43.6l-1.517.676a1.1,1.1,0,1,0,.9,2.011l1.517-.676a15.85,15.85,0,0,0,4.462-2.979,15.85,15.85,0,0,0,4.462,2.979l1.517.676a1.155,1.155,0,0,0,1.454-.557,1.1,1.1,0,0,0-.557-1.454l-1.517-.676A13.639,13.639,0,0,1,335.546,41a15.728,15.728,0,0,0,3.03-6.33h2.283a1.1,1.1,0,0,0,0-2.2Zm-6.8,6.854a13.53,13.53,0,0,1-2.251-4.652h4.5A13.529,13.529,0,0,1,334.059,39.327Z" transform="translate(-278.283 -25.17)"/>
        <path id="Path_11708" data-name="Path 11708" d="M60.841,155.843a1.1,1.1,0,0,0,1.419-.641l.955-2.532h6.451l.965,2.535a1.1,1.1,0,1,0,2.057-.784L67.728,141.4l-.01-.025a1.4,1.4,0,0,0-1.295-.87h0a1.4,1.4,0,0,0-1.295.867l-.012.03L60.2,154.425A1.1,1.1,0,0,0,60.841,155.843Zm5.584-11.68,2.4,6.305H64.046Z" transform="translate(-51.303 -119.878)"/>
        <path id="Path_11709" data-name="Path 11709" d="M290.454,293h-5.122a1.1,1.1,0,0,0,0,2.2h1.46v3.449h-4.379A3.925,3.925,0,0,0,278.886,293h-3.179a1.1,1.1,0,1,0,0,2.2h3.179a1.725,1.725,0,0,1,0,3.449h-3.532a1.1,1.1,0,0,0,0,2.2h3.532a1.727,1.727,0,0,1,1.725,1.725,1.706,1.706,0,0,1-1.725,1.725,6.067,6.067,0,0,1-4.52-1.443,1.1,1.1,0,0,0-1.557,1.557,8.147,8.147,0,0,0,6.077,2.088,3.925,3.925,0,0,0,3.527-5.651h4.379v4.55a1.1,1.1,0,0,0,2.2,0V295.2h1.46a1.1,1.1,0,0,0,0-2.2Z" transform="translate(-232.49 -249.992)"/>
      </g>
    </g>
  </g>
</svg>
