
<svg xmlns="http://www.w3.org/2000/svg" width="64.74" height="65.454" viewBox="0 0 64.74 65.454">
  <g id="_24-4Online_1587724937" data-name="24-4Online_1587724937" transform="translate(163.206 -69)" opacity="0.35">
    <g id="Group_5093" data-name="Group 5093" transform="translate(-163.206 69)">
      <g id="Group_5091" data-name="Group 5091" transform="translate(0.959 0.959)">
        <g id="Group_5085" data-name="Group 5085">
          <g id="Group_5084" data-name="Group 5084">
            <g id="Group_5083" data-name="Group 5083">
              <g id="Group_5082" data-name="Group 5082">
                <g id="Group_5081" data-name="Group 5081">
                  <path id="Path_11670" data-name="Path 11670" d="M23.963,7.5H56.49a3.785,3.785,0,0,1,3.785,3.785V67.25a3.785,3.785,0,0,1-3.785,3.785H14.078a3.785,3.785,0,0,1-3.785-3.785V21.169A3.785,3.785,0,0,1,11.4,18.493l9.885-9.885A3.784,3.784,0,0,1,23.963,7.5Z" transform="translate(-10.293 -7.499)" fill="#cdd7e8"/>
                  <path id="Path_11671" data-name="Path 11671" d="M316.215,7.5h-8.127a3.785,3.785,0,0,1,3.785,3.785V67.25a3.785,3.785,0,0,1-3.785,3.785h8.127A3.785,3.785,0,0,0,320,67.25V11.284A3.785,3.785,0,0,0,316.215,7.5Z" transform="translate(-270.018 -7.499)" fill="#b2bccc"/>
                  <path id="Path_11672" data-name="Path 11672" d="M13.722,20.812l9.885-9.885a3.784,3.784,0,0,1,1.109-.769v9.415a2.347,2.347,0,0,1-2.346,2.346H12.953a3.782,3.782,0,0,1,.769-1.108Z" transform="translate(-12.613 -9.819)" fill="#e28086"/>
                </g>
              </g>
            </g>
          </g>
          <path id="Path_11673" data-name="Path 11673" d="M185.977,64.7H166.293a1.19,1.19,0,0,1-1.19-1.19V60.4a1.19,1.19,0,0,1,1.19-1.19h19.683a1.19,1.19,0,0,1,1.19,1.19v3.111A1.191,1.191,0,0,1,185.977,64.7Z" transform="translate(-145.312 -52.597)" fill="#cdd7e8"/>
        </g>
        <path id="Path_11674" data-name="Path 11674" d="M366.322,346.633l-3.516-2.164a1.076,1.076,0,0,0-1.128,0l-3.516,2.164a1.076,1.076,0,0,1-1.64-.916V331.792h11.441v13.925A1.076,1.076,0,0,1,366.322,346.633Z" transform="translate(-312.26 -290.335)" fill="#e8ae4d"/>
        <g id="Group_5090" data-name="Group 5090" transform="translate(37.143 21.03)">
          <g id="Group_5089" data-name="Group 5089">
            <g id="Group_5088" data-name="Group 5088">
              <g id="Group_5087" data-name="Group 5087">
                <g id="Group_5086" data-name="Group 5086">
                  <path id="Path_11675" data-name="Path 11675" d="M315.95,173.122a2.875,2.875,0,0,0,3.079,1,2.875,2.875,0,0,1,3.679,2.673,2.875,2.875,0,0,0,1.9,2.619,2.875,2.875,0,0,1,1.405,4.324,2.875,2.875,0,0,0,0,3.237,2.875,2.875,0,0,1-1.405,4.324,2.875,2.875,0,0,0-1.9,2.619,2.875,2.875,0,0,1-3.679,2.673,2.875,2.875,0,0,0-3.079,1,2.875,2.875,0,0,1-4.547,0,2.875,2.875,0,0,0-3.079-1,2.875,2.875,0,0,1-3.679-2.673,2.875,2.875,0,0,0-1.9-2.619,2.875,2.875,0,0,1-1.405-4.324,2.875,2.875,0,0,0,0-3.237,2.875,2.875,0,0,1,1.405-4.324,2.875,2.875,0,0,0,1.9-2.619,2.875,2.875,0,0,1,3.679-2.673,2.875,2.875,0,0,0,3.079-1A2.875,2.875,0,0,1,315.95,173.122Z" transform="translate(-300.838 -172.007)" fill="#ffe07d"/>
                  <path id="Path_11676" data-name="Path 11676" d="M394.312,186.976a2.875,2.875,0,0,1,0-3.237,2.875,2.875,0,0,0-1.405-4.324A2.875,2.875,0,0,1,391,176.8a2.875,2.875,0,0,0-3.679-2.673,2.875,2.875,0,0,1-3.079-1,2.875,2.875,0,0,0-4.547,0,2.871,2.871,0,0,1-.555.545,12.844,12.844,0,0,1,0,23.379,2.87,2.87,0,0,1,.555.545,2.875,2.875,0,0,0,4.547,0,2.875,2.875,0,0,1,3.079-1A2.875,2.875,0,0,0,391,193.92a2.875,2.875,0,0,1,1.9-2.619,2.875,2.875,0,0,0,1.405-4.324Z" transform="translate(-369.134 -172.007)" fill="#ffd064"/>
                  <circle id="Ellipse_285" data-name="Ellipse 285" cx="7.077" cy="7.077" r="7.077" transform="translate(5.762 6.274)" fill="#e8ae4d"/>
                  <path id="Path_11677" data-name="Path 11677" d="M428.637,232.62a7.077,7.077,0,0,0-4.1-6.423,12.854,12.854,0,0,1,0,12.846A7.077,7.077,0,0,0,428.637,232.62Z" transform="translate(-408.722 -219.269)" fill="#e5a32e"/>
                </g>
              </g>
            </g>
          </g>
        </g>
      </g>
      <path id="Path_11678" data-name="Path 11678" d="M13.722,20.812l9.885-9.885a3.784,3.784,0,0,1,1.109-.769v9.415a2.347,2.347,0,0,1-2.346,2.346H12.953a3.782,3.782,0,0,1,.769-1.108Z" transform="translate(-11.654 -8.86)" fill="#5397c5"/>
      <g id="Group_5092" data-name="Group 5092" transform="translate(0)">
        <path id="Path_11679" data-name="Path 11679" d="M84.792,181.506H60.249a.959.959,0,0,0,0,1.917H84.792a.959.959,0,1,0,0-1.917Z" transform="translate(-52.068 -158.302)" fill="#002f59"/>
        <path id="Path_11680" data-name="Path 11680" d="M84.792,234.2H60.249a.959.959,0,0,0,0,1.917H84.792a.959.959,0,1,0,0-1.917Z" transform="translate(-52.068 -204.262)" fill="#002f59"/>
        <path id="Path_11681" data-name="Path 11681" d="M84.792,286.9H60.249a.959.959,0,0,0,0,1.917H84.792a.959.959,0,1,0,0-1.917Z" transform="translate(-52.068 -250.22)" fill="#002f59"/>
        <path id="Path_11682" data-name="Path 11682" d="M85.751,340.553a.959.959,0,0,0-.959-.959H60.249a.959.959,0,1,0,0,1.917H84.792A.959.959,0,0,0,85.751,340.553Z" transform="translate(-52.068 -296.181)" fill="#002f59"/>
        <path id="Path_11683" data-name="Path 11683" d="M60.249,416.821a.959.959,0,1,0,0,1.917h12.3a.959.959,0,1,0,0-1.917Z" transform="translate(-52.068 -363.535)" fill="#002f59"/>
        <path id="Path_11684" data-name="Path 11684" d="M181.585,56.967V53.856a2.152,2.152,0,0,0-2.149-2.149H159.753a2.152,2.152,0,0,0-2.149,2.149v3.111a2.151,2.151,0,0,0,2.149,2.149h1.662a.959.959,0,0,0,0-1.917h-1.662a.232.232,0,0,1-.232-.232V53.856a.232.232,0,0,1,.232-.232h19.683a.232.232,0,0,1,.232.232v3.111a.232.232,0,0,1-.232.232H165.9a.959.959,0,0,0,0,1.917h13.539A2.151,2.151,0,0,0,181.585,56.967Z" transform="translate(-137.813 -45.097)" fill="#002f59"/>
        <path id="Path_11685" data-name="Path 11685" d="M53.735,58.46a.959.959,0,0,0-.959.959V60.71a2.829,2.829,0,0,1-2.826,2.826H7.537A2.829,2.829,0,0,1,4.711,60.71V14.628a2.845,2.845,0,0,1,.068-.609h8.729a3.309,3.309,0,0,0,3.305-3.305V1.985a2.844,2.844,0,0,1,.609-.068H49.949a2.829,2.829,0,0,1,2.826,2.826V17.507a.959.959,0,1,0,1.917,0V4.743A4.749,4.749,0,0,0,49.95,0H17.422a4.713,4.713,0,0,0-3.354,1.389L4.183,11.274a4.712,4.712,0,0,0-1.389,3.354V60.71a4.749,4.749,0,0,0,4.743,4.743H49.95a4.749,4.749,0,0,0,4.744-4.743V59.419a.959.959,0,0,0-.959-.959ZM14.9,3.273v7.441A1.389,1.389,0,0,1,13.508,12.1H6.067Z" transform="translate(-2.794 0)" fill="#002f59"/>
        <path id="Path_11686" data-name="Path 11686" d="M320.26,177.737a3.833,3.833,0,0,0-1.874-5.767,1.9,1.9,0,0,1-1.268-1.745,3.834,3.834,0,0,0-4.905-3.564,1.9,1.9,0,0,1-2.052-.667,3.833,3.833,0,0,0-6.064,0,1.905,1.905,0,0,1-2.052.667,3.833,3.833,0,0,0-4.905,3.564,1.905,1.905,0,0,1-1.268,1.745A3.833,3.833,0,0,0,294,177.737a1.905,1.905,0,0,1,0,2.158,3.833,3.833,0,0,0,1.874,5.767,1.9,1.9,0,0,1,1.268,1.746,3.833,3.833,0,0,0,3.31,3.682v8.729a2.035,2.035,0,0,0,3.1,1.733l3.516-2.165a.1.1,0,0,1,.123,0l3.516,2.165a2.035,2.035,0,0,0,3.1-1.733v-8.729a3.833,3.833,0,0,0,3.31-3.682,1.9,1.9,0,0,1,1.268-1.746,3.834,3.834,0,0,0,1.874-5.767A1.9,1.9,0,0,1,320.26,177.737Zm-8.548,22.18-3.516-2.165a2.035,2.035,0,0,0-2.133,0l-3.516,2.164a.117.117,0,0,1-.179-.1v-8.911a1.9,1.9,0,0,1,1.73.731,3.833,3.833,0,0,0,6.064,0,1.9,1.9,0,0,1,1.73-.731v8.911A.117.117,0,0,1,311.712,199.917Zm6.964-18.943a1.916,1.916,0,0,1-.937,2.882,3.811,3.811,0,0,0-2.537,3.492,1.89,1.89,0,0,1-.69,1.415,1.909,1.909,0,0,1-1.762.366,3.812,3.812,0,0,0-4.106,1.334,1.916,1.916,0,0,1-3.031,0,3.809,3.809,0,0,0-3.02-1.49,3.87,3.87,0,0,0-1.085.156,1.908,1.908,0,0,1-1.762-.366,1.889,1.889,0,0,1-.69-1.415,3.812,3.812,0,0,0-2.537-3.492,1.916,1.916,0,0,1-.936-2.882,3.812,3.812,0,0,0,0-4.317,1.916,1.916,0,0,1,.936-2.882,3.812,3.812,0,0,0,2.537-3.492,1.916,1.916,0,0,1,2.452-1.781,3.812,3.812,0,0,0,4.105-1.334,1.916,1.916,0,0,1,3.031,0,3.812,3.812,0,0,0,4.106,1.334,1.916,1.916,0,0,1,2.452,1.781,3.812,3.812,0,0,0,2.537,3.492,1.916,1.916,0,0,1,.937,2.882A3.812,3.812,0,0,0,318.675,180.975Z" transform="translate(-256.189 -143.477)" fill="#002f59"/>
        <path id="Path_11687" data-name="Path 11687" d="M346.449,213.583a8.035,8.035,0,1,0,8.035,8.035A8.044,8.044,0,0,0,346.449,213.583Zm0,14.153a6.118,6.118,0,1,1,6.118-6.118A6.125,6.125,0,0,1,346.449,227.736Z" transform="translate(-295.509 -186.279)" fill="#002f59"/>
      </g>
    </g>
  </g>
</svg>
