
<svg xmlns="http://www.w3.org/2000/svg" width="80.924" height="74" viewBox="0 0 80.924 74">
  <g id="Group_2154" data-name="Group 2154" transform="translate(-674.42 -127.24)" opacity="0.35" style="mix-blend-mode: normal;isolation: isolate">
    <path id="Path_2032" data-name="Path 2032" d="M727.163,141.69a3.6,3.6,0,1,0,3.6,3.608A3.6,3.6,0,0,0,727.163,141.69Zm0,5.553a1.949,1.949,0,1,1,1.945-1.945A1.947,1.947,0,0,1,727.163,147.243Z" transform="translate(-12.807 -3.722)" fill="#002f59"/>
    <path id="Path_2033" data-name="Path 2033" d="M727.163,141.69a3.6,3.6,0,1,0,3.6,3.608A3.6,3.6,0,0,0,727.163,141.69Zm0,5.553a1.949,1.949,0,1,1,1.945-1.945A1.947,1.947,0,0,1,727.163,147.243Z" transform="translate(-12.807 -3.722)" fill="#002f59"/>
    <path id="Path_2034" data-name="Path 2034" d="M723.436,137.968a3.6,3.6,0,1,0,3.6,3.608A3.6,3.6,0,0,0,723.436,137.968Zm0,5.553a1.949,1.949,0,1,1,1.945-1.945A1.947,1.947,0,0,1,723.436,143.521Zm3.6-1.945a3.6,3.6,0,1,0-3.6,3.6A3.611,3.611,0,0,0,727.037,141.576Zm-3.6,1.945a1.949,1.949,0,1,1,1.945-1.945A1.947,1.947,0,0,1,723.436,143.521ZM726,147.746v.178a1.427,1.427,0,0,0,.007-.178.636.636,0,0,0-.022-.171A1.321,1.321,0,0,1,726,147.746ZM726,148.1a7.746,7.746,0,0,1-.134,1.025A5.845,5.845,0,0,0,726,148.1Zm-1.418,3.831c.007-.007.007-.015.015-.022h-.008A.028.028,0,0,1,724.58,151.933Zm11.448-12.844-2.353-.379a.385.385,0,0,1-.327-.267,10.424,10.424,0,0,0-.7-1.663.415.415,0,0,1,.037-.423l1.411-1.93a2.066,2.066,0,0,0-.216-2.68l-.623-.624a2.12,2.12,0,0,0-2.688-.215l-1.916,1.4a.418.418,0,0,1-.423.045,10.555,10.555,0,0,0-1.671-.69.412.412,0,0,1-.274-.319c-.1-.646-.245-1.574-.371-2.361a2.089,2.089,0,0,0-2.056-1.745h-.884a2.061,2.061,0,0,0-2.041,1.752l-.379,2.353a.384.384,0,0,1-.267.319,12.952,12.952,0,0,0-1.67.7.344.344,0,0,1-.4-.052l-1.923-1.388a2.113,2.113,0,0,0-2.695.215l-.631.631a2.057,2.057,0,0,0-.2,2.673l1.4,1.945a.382.382,0,0,1,.044.4,9.829,9.829,0,0,0-.69,1.663.4.4,0,0,1-.319.275l-2.361.379a2.042,2.042,0,0,0-1.745,2.034v.891a2.087,2.087,0,0,0,1.745,2.049l2.339.364a.417.417,0,0,1,.349.275,10.74,10.74,0,0,0,.683,1.648.4.4,0,0,1-.044.423l-.1.134-.245.341a.837.837,0,0,0-.067.861.822.822,0,0,0,.735.445h9.8a4.447,4.447,0,0,1-.223.876c-.059.163-.126.319-.193.475-.045.1-.1.193-.141.29a4.175,4.175,0,0,1-.542.809.2.2,0,0,0-.037.045c-.1.111-.193.215-.29.319a.323.323,0,0,0-.045.052,3.039,3.039,0,0,1-.29.26,2.189,2.189,0,0,1-.3.238c-.022.022-.052.037-.074.059-.111.074-.215.148-.327.215a.161.161,0,0,0-.037.022,2.706,2.706,0,0,1-.253.134c-.081.045-.163.082-.245.119a.007.007,0,0,1-.008.007.819.819,0,0,0-.475.906c.03.186.067.371.089.549l.022.141a.688.688,0,0,0,.1.26.751.751,0,0,0,.312.334.878.878,0,0,0,.408.1.853.853,0,0,0,.275-.045l11.211-4.447a1.383,1.383,0,0,1,.23-.074c.03-.007.059-.022.1-.03l.1-.022a1.142,1.142,0,0,0,.171-.052.832.832,0,0,0,.4-.364.814.814,0,0,0,.052-.705,1.277,1.277,0,0,0-.2-.334l-.2-.275-1.2-1.656a.38.38,0,0,1-.022-.423,13.388,13.388,0,0,0,.691-1.67.364.364,0,0,1,.312-.252l2.346-.364a2.089,2.089,0,0,0,1.745-2.056v-.884A2.061,2.061,0,0,0,736.028,139.089Zm.089,2.925a.431.431,0,0,1-.356.423l-2.339.364a2.035,2.035,0,0,0-1.641,1.4,10.026,10.026,0,0,1-.579,1.4,2,2,0,0,0,.164,2.168l.846,1.158.008.007-7.655,3.029c.007-.007.007-.015.015-.022s.007-.015.015-.022c.082-.1.163-.215.238-.327a2.946,2.946,0,0,0,.178-.282q.167-.267.312-.557a.057.057,0,0,1,.015-.037c.1-.2.178-.4.252-.6.037-.1.067-.2.1-.3a.12.12,0,0,1,.022-.067,5.772,5.772,0,0,0,.148-.616A5.845,5.845,0,0,0,726,148.1c0-.059.007-.119.007-.178a1.427,1.427,0,0,0,.007-.178.636.636,0,0,0-.022-.171,1.335,1.335,0,0,0-.052-.156.8.8,0,0,0-.171-.252.83.83,0,0,0-.586-.245h-9.31a2.052,2.052,0,0,0-.186-1.307,8.955,8.955,0,0,1-.579-1.4,2.074,2.074,0,0,0-1.648-1.4l-2.361-.364a.438.438,0,0,1-.349-.423v-.891a.4.4,0,0,1,.356-.408l2.353-.379a2.034,2.034,0,0,0,1.641-1.4,7.554,7.554,0,0,1,.587-1.388,2.024,2.024,0,0,0-.186-2.146l-1.4-1.945a.418.418,0,0,1,.037-.542l.624-.624a.438.438,0,0,1,.564-.045l1.893,1.374a2.089,2.089,0,0,0,2.168.193,9.349,9.349,0,0,1,1.411-.586,2.039,2.039,0,0,0,1.388-1.633l.379-2.353a.421.421,0,0,1,.408-.364h.884a.46.46,0,0,1,.438.423c.111.713.26,1.626.356,2.294a2.1,2.1,0,0,0,1.4,1.633,8.069,8.069,0,0,1,1.4.579,2.1,2.1,0,0,0,2.161-.171l1.916-1.4a.37.37,0,0,1,.55.037l.623.631a.419.419,0,0,1,.052.542l-1.411,1.93a2.054,2.054,0,0,0-.163,2.146,9.6,9.6,0,0,1,.586,1.4,2.046,2.046,0,0,0,1.641,1.411l2.353.379a.422.422,0,0,1,.349.408Zm-12.681-4.046a3.6,3.6,0,1,0,3.6,3.608A3.6,3.6,0,0,0,723.436,137.968Zm0,5.553a1.949,1.949,0,1,1,1.945-1.945A1.947,1.947,0,0,1,723.436,143.521Zm1.151,8.389a.028.028,0,0,1-.007.022c.007-.007.007-.015.015-.022Zm1.277-2.784A5.845,5.845,0,0,0,726,148.1,7.746,7.746,0,0,1,725.864,149.127Zm.148-1.381a.636.636,0,0,0-.022-.171,1.321,1.321,0,0,1,.015.171v.178A1.427,1.427,0,0,0,726.012,147.746Zm-2.576-9.778a3.6,3.6,0,1,0,3.6,3.608A3.6,3.6,0,0,0,723.436,137.968Zm0,5.553a1.949,1.949,0,1,1,1.945-1.945A1.947,1.947,0,0,1,723.436,143.521Zm0-5.553a3.6,3.6,0,1,0,3.6,3.608A3.6,3.6,0,0,0,723.436,137.968Zm0,5.553a1.949,1.949,0,1,1,1.945-1.945A1.947,1.947,0,0,1,723.436,143.521Z" transform="translate(-9.079 0)" fill="#002f59"/>
    <path id="Path_2035" data-name="Path 2035" d="M736.34,141.294l-2.354-.379a2.046,2.046,0,0,1-1.641-1.411,9.576,9.576,0,0,0-.586-1.4,2.054,2.054,0,0,1,.163-2.146l1.411-1.93a.419.419,0,0,0-.052-.542l-.624-.631a.37.37,0,0,0-.549-.037l-1.916,1.4a2.1,2.1,0,0,1-2.16.171,8.08,8.08,0,0,0-1.4-.579,2.1,2.1,0,0,1-1.4-1.633c-.1-.668-.245-1.581-.356-2.294a.46.46,0,0,0-.438-.423h-.883a.421.421,0,0,0-.408.364l-.379,2.353a2.04,2.04,0,0,1-1.389,1.633,9.354,9.354,0,0,0-1.411.587,2.088,2.088,0,0,1-2.168-.193l-1.893-1.373a.439.439,0,0,0-.564.045l-.624.624a.418.418,0,0,0-.037.542l1.4,1.945a2.024,2.024,0,0,1,.186,2.146,7.553,7.553,0,0,0-.587,1.388,2.033,2.033,0,0,1-1.641,1.4l-2.354.379a.4.4,0,0,0-.356.408v.891a.438.438,0,0,0,.349.423l2.361.364a2.074,2.074,0,0,1,1.648,1.4,8.963,8.963,0,0,0,.579,1.4,2.05,2.05,0,0,1,.185,1.307h9.31a.83.83,0,0,1,.586.245.8.8,0,0,1,.171.252,1.273,1.273,0,0,1,.052.156.631.631,0,0,1,.022.171,1.426,1.426,0,0,1-.007.178c0,.059-.007.119-.007.178a5.857,5.857,0,0,1-.134,1.025,5.683,5.683,0,0,1-.148.616.12.12,0,0,0-.022.067c-.037.1-.067.193-.1.3-.074.2-.156.4-.252.6a.057.057,0,0,0-.015.037,4.086,4.086,0,0,1-.312.557,2.926,2.926,0,0,1-.178.282c-.074.111-.156.223-.237.327l7.617-2.992-.846-1.158a2,2,0,0,1-.163-2.168,10.059,10.059,0,0,0,.579-1.4,2.035,2.035,0,0,1,1.641-1.4l2.339-.364a.431.431,0,0,0,.356-.423V141.7A.421.421,0,0,0,736.34,141.294Zm-12.332,4.455a3.6,3.6,0,1,1,3.6-3.6A3.6,3.6,0,0,1,724.008,145.749Z" transform="translate(-9.651 -0.572)" fill="#3886b9"/>
    <path id="Path_2036" data-name="Path 2036" d="M727.163,141.69a3.6,3.6,0,1,0,3.6,3.608A3.6,3.6,0,0,0,727.163,141.69Zm0,5.553a1.949,1.949,0,1,1,1.945-1.945A1.947,1.947,0,0,1,727.163,147.243Z" transform="translate(-12.807 -3.722)" fill="#002f59"/>
    <g id="Group_2152" data-name="Group 2152" transform="translate(674.42 146.817)">
      <path id="Path_2037" data-name="Path 2037" d="M724.019,154.574v.178c0,.059-.008.119-.008.178a7.706,7.706,0,0,1-.133,1.025,5.743,5.743,0,0,1-.149.616.121.121,0,0,0-.022.067c-.037.1-.067.193-.1.3-.074.2-.156.4-.253.6a.057.057,0,0,0-.015.037q-.145.29-.312.557a2.98,2.98,0,0,1-.178.282c-.074.111-.156.223-.238.327H722.6a.027.027,0,0,1-.007.022c-.007.007-.007.015-.015.022a6.851,6.851,0,0,1-3.534,2.391,6.618,6.618,0,0,1-1.886.267H704.5a.828.828,0,0,1,0-1.656h12.658a5.074,5.074,0,0,0,2.153-.468.007.007,0,0,0,.007-.007,1.858,1.858,0,0,0,.245-.119,2.7,2.7,0,0,0,.253-.134.156.156,0,0,1,.037-.022c.111-.067.215-.141.327-.215.022-.022.052-.037.074-.059.1-.074.2-.156.3-.238s.193-.171.289-.26a.317.317,0,0,1,.045-.052c.1-.1.193-.208.289-.319a.2.2,0,0,1,.037-.045,5.5,5.5,0,0,0,.542-.809c.045-.1.1-.193.141-.29.067-.156.134-.312.193-.475a4.871,4.871,0,0,0,.215-.876h-20.09a.824.824,0,0,1-.46-1.507,1.183,1.183,0,0,1,.134-.074h.007a.473.473,0,0,1,.134-.045.751.751,0,0,1,.186-.022H723.2a.83.83,0,0,1,.586.245.8.8,0,0,1,.171.252,1.321,1.321,0,0,1,.052.156A1.367,1.367,0,0,1,724.019,154.574Z" transform="translate(-681.367 -153.75)" fill="#002f59"/>
      <path id="Path_2038" data-name="Path 2038" d="M734.063,160.454a.829.829,0,0,1-.475.75l-18.457,8.738a1.662,1.662,0,0,1-.178.059l-21.716,4.766a.688.688,0,0,1-.178.022h-5.4a.83.83,0,0,1-.832-.832v-12.71a.839.839,0,0,1,.394-.705l1.262-.78L698,153.891l.03-.022a.454.454,0,0,1,.1-.052h.007a.473.473,0,0,1,.134-.045.751.751,0,0,1,.186-.022.817.817,0,0,1,.705.386.827.827,0,0,1-.267,1.136l-.208.126s-7.656,1.876-10.208,6.311,0,11.426,0,11.426h4.484l21.538-4.729,17.863-8.456a3.593,3.593,0,0,0-4.269-3.007,1.662,1.662,0,0,0-.275.074c-.037.007-.067.022-.1.03a1.393,1.393,0,0,0-.23.074l-11.21,4.447-3.593,1.425a1.782,1.782,0,0,1-1.552-.111l-2.472-1.44-.208-.119a.824.824,0,0,1,.416-1.537.852.852,0,0,1,.416.111l2.658,1.544.015.007.022-.007,3.1-1.218,3.764-1.485h.008l7.617-2.992.416-.163a4.706,4.706,0,0,1,1.262-.319,5.245,5.245,0,0,1,5.91,5.19Z" transform="translate(-677.616 -153.75)" fill="#002f59"/>
      <path id="Path_2039" data-name="Path 2039" d="M724.019,154.574v.178c0,.059-.008.119-.008.178a7.706,7.706,0,0,1-.133,1.025,5.743,5.743,0,0,1-.149.616.121.121,0,0,0-.022.067c-.037.1-.067.193-.1.3-.074.2-.156.4-.253.6a.057.057,0,0,0-.015.037q-.145.29-.312.557a2.98,2.98,0,0,1-.178.282c-.074.111-.156.223-.238.327H722.6a.027.027,0,0,1-.007.022c-.007.007-.007.015-.015.022a6.851,6.851,0,0,1-3.534,2.391,6.618,6.618,0,0,1-1.886.267H704.5a.828.828,0,0,1,0-1.656h12.658a5.074,5.074,0,0,0,2.153-.468.007.007,0,0,0,.007-.007,1.858,1.858,0,0,0,.245-.119,2.7,2.7,0,0,0,.253-.134.156.156,0,0,1,.037-.022c.111-.067.215-.141.327-.215.022-.022.052-.037.074-.059.1-.074.2-.156.3-.238s.193-.171.289-.26a.317.317,0,0,1,.045-.052c.1-.1.193-.208.289-.319a.2.2,0,0,1,.037-.045,5.5,5.5,0,0,0,.542-.809c.045-.1.1-.193.141-.29.067-.156.134-.312.193-.475a4.871,4.871,0,0,0,.215-.876h-20.09a.824.824,0,0,1-.46-1.507,1.183,1.183,0,0,1,.134-.074h.007a.473.473,0,0,1,.134-.045.751.751,0,0,1,.186-.022H723.2a.83.83,0,0,1,.586.245.8.8,0,0,1,.171.252,1.321,1.321,0,0,1,.052.156A1.367,1.367,0,0,1,724.019,154.574Z" transform="translate(-681.367 -153.75)" fill="#002f59"/>
      <path id="Path_2040" data-name="Path 2040" d="M682.95,157.81h-6.192a2.345,2.345,0,0,0-2.339,2.346V175.4a2.345,2.345,0,0,0,2.339,2.346h6.192a2.342,2.342,0,0,0,2.294-1.908,2.15,2.15,0,0,0,.045-.438V160.156A2.35,2.35,0,0,0,682.95,157.81Zm.683,17.588a.688.688,0,0,1-.683.69h-6.192a.694.694,0,0,1-.69-.69V160.156a.689.689,0,0,1,.69-.69h6.192a.683.683,0,0,1,.683.69Z" transform="translate(-674.42 -154.796)" fill="#002f59"/>
      <path id="Path_2041" data-name="Path 2041" d="M732.945,160.521l-17.863,8.456-21.538,4.729H689.06V162.281l10.208-6.311h19.86a4.893,4.893,0,0,1-.215.876c-.059.163-.126.319-.193.475a5.226,5.226,0,0,1-.683,1.1.2.2,0,0,0-.037.045c-.1.111-.193.215-.289.319a4.425,4.425,0,0,1-.334.312c-.1.082-.193.163-.3.238-.022.022-.052.037-.074.059-.111.074-.215.148-.327.215a.164.164,0,0,0-.037.022,2.736,2.736,0,0,1-.253.134c-.081.045-.163.082-.245.119a.007.007,0,0,1-.008.007,5.073,5.073,0,0,1-2.153.468H701.325a.828.828,0,0,0,0,1.656h7.921l2.473,1.44a1.782,1.782,0,0,0,1.552.111l3.593-1.425,11.211-4.447a1.38,1.38,0,0,1,.23-.074,1.579,1.579,0,0,1,.2-.052,1.164,1.164,0,0,0,.171-.052,3.593,3.593,0,0,1,4.269,3.007Z" transform="translate(-678.191 -154.322)" fill="#cdd7e8"/>
      <path id="Path_2042" data-name="Path 2042" d="M682.538,178.471a2.477,2.477,0,1,1,2.478-2.477A2.481,2.481,0,0,1,682.538,178.471Zm0-3.3a.824.824,0,1,0,.828.825A.827.827,0,0,0,682.538,175.17Z" transform="translate(-675.873 -158.842)" fill="#002f59"/>
    </g>
    <path id="Path_2043" data-name="Path 2043" d="M728.312,179.237a7.692,7.692,0,0,0-4.432,13.972,6.912,6.912,0,0,1-.238-1.8.8.8,0,0,1,.148-.468,6.049,6.049,0,1,1,9.34-.356H735.1a7.695,7.695,0,0,0-6.786-11.344Zm-3.69,16.2.475.186c-.082-.1-.164-.208-.238-.312A2.4,2.4,0,0,0,724.623,195.437ZM739.508,184.6h-.958a.41.41,0,0,1-.393-.312,11.216,11.216,0,0,0-.579-1.6.426.426,0,0,1,.1-.5l.728-.6a2.072,2.072,0,0,0,.252-2.918l-.334-.408a2.138,2.138,0,0,0-2.918-.252l-.7.579a.369.369,0,0,1-.5.03,10.86,10.86,0,0,0-1.515-.891.4.4,0,0,1-.223-.438l.156-.876a2.1,2.1,0,0,0-1.7-2.405l-.5-.082a2.059,2.059,0,0,0-2.391,1.678l-.208,1.143a10.558,10.558,0,0,0-2.064.327.428.428,0,0,1-.483-.186l-.408-.713a2.128,2.128,0,0,0-2.836-.757l-.438.252a2.084,2.084,0,0,0-.772,2.836l.4.69a.4.4,0,0,1-.067.49,10.02,10.02,0,0,0-1.173,1.411.442.442,0,0,1-.475.141l-.735-.267a2.109,2.109,0,0,0-2.651,1.247l-.178.483a2.081,2.081,0,0,0,1.24,2.665l.713.252a.42.42,0,0,1,.275.453c-.022.282-.037.564-.037.861a9.116,9.116,0,0,0,.045.921.428.428,0,0,1-.267.453l-.72.26a2.07,2.07,0,0,0-1.24,2.658l.178.483a1.755,1.755,0,0,0,.289.512,2.112,2.112,0,0,0,2.131.8,1.421,1.421,0,0,0,.238-.067l.765-.282a.412.412,0,0,1,.468.148,9.914,9.914,0,0,0,.973,1.173c.067.074.134.141.208.215a.408.408,0,0,1,.074.483l-.074.119a.807.807,0,0,0-.074.69.821.821,0,0,0,.475.5l2.257.9.624.252a.992.992,0,0,0,.29.052.842.842,0,0,0,.631-.29.426.426,0,0,1,.393-.119,6.832,6.832,0,0,0,.676.148,2.271,2.271,0,0,0,.238.037.835.835,0,0,0,.824-.4c.015-.03.03-.067.045-.1a.825.825,0,0,0-.267-.973c-.082-.059-.163-.134-.245-.2-.1-.089-.186-.171-.275-.267a3.561,3.561,0,0,1-.349-.393,2.421,2.421,0,0,1-.208-.275.112.112,0,0,1-.03-.045,2.777,2.777,0,0,1-.23-.371,3.815,3.815,0,0,1-.2-.386c-.007-.015-.007-.022-.015-.037a4.844,4.844,0,0,1-.349-1.017.776.776,0,0,0-.356-.5,6.05,6.05,0,1,1,8.085-1.433,2.644,2.644,0,0,1-.223.282.821.821,0,0,0,.616,1.366h3.2a.8.8,0,0,0,.6-.26.815.815,0,0,0,.223-.616.366.366,0,0,1,.037-.171q.133-.3.245-.6a9.542,9.542,0,0,0,.327-1.017.4.4,0,0,1,.393-.29h.958a2.085,2.085,0,0,0,2.079-2.079v-.52A2.085,2.085,0,0,0,739.508,184.6Zm.423,2.6a.423.423,0,0,1-.423.423h-.958a2.039,2.039,0,0,0-1.982,1.514,10.366,10.366,0,0,1-.49,1.374c-.015.022-.022.052-.037.074H735.1a7.7,7.7,0,1,0-11.218,2.628,6.647,6.647,0,0,0,.594,1.463c.052.1.1.193.156.282.074.126.156.238.23.356a2.4,2.4,0,0,0-.238.126l-1.678-.668a2.039,2.039,0,0,0-.594-1.73,9.193,9.193,0,0,1-.988-1.158,2.085,2.085,0,0,0-2.391-.757l-.765.29a.436.436,0,0,1-.534-.267l-.178-.483a.421.421,0,0,1,.252-.542l.713-.26a2.089,2.089,0,0,0,1.359-2.175,6.331,6.331,0,0,1-.044-.75c0-.245.015-.483.037-.72a2.086,2.086,0,0,0-1.359-2.146l-.72-.253a.428.428,0,0,1-.245-.549l.171-.483a.436.436,0,0,1,.535-.267l.743.275a2.089,2.089,0,0,0,2.391-.75,8.8,8.8,0,0,1,.98-1.18,2.024,2.024,0,0,0,.334-2.487l-.386-.683a.426.426,0,0,1,.156-.587l.438-.252a.435.435,0,0,1,.586.148l.408.713a2.073,2.073,0,0,0,2.324.958,7.253,7.253,0,0,1,2.168-.282c.03,0,.141.007.171.007a.827.827,0,0,0,.809-.676l.334-1.826a.437.437,0,0,1,.5-.342l.49.082a.449.449,0,0,1,.356.5l-.156.869a2.061,2.061,0,0,0,1.136,2.22,10.089,10.089,0,0,1,1.284.75,2.118,2.118,0,0,0,2.509-.111l.705-.586a.362.362,0,0,1,.579.052l.342.408a.414.414,0,0,1-.052.587l-.72.6a2.1,2.1,0,0,0-.549,2.45,8.073,8.073,0,0,1,.49,1.344,2.057,2.057,0,0,0,1.99,1.537h.958a.418.418,0,0,1,.423.423Zm-15.071,8.115a2.4,2.4,0,0,0-.238.126l.475.186C725.016,195.519,724.934,195.415,724.86,195.311Zm3.452-16.073a7.692,7.692,0,0,0-4.432,13.972,6.912,6.912,0,0,1-.238-1.8.8.8,0,0,1,.148-.468,6.049,6.049,0,1,1,9.34-.356H735.1a7.695,7.695,0,0,0-6.786-11.344Z" transform="translate(-10.826 -12.203)" fill="#002f59"/>
    <path id="Path_2044" data-name="Path 2044" d="M740.5,187.251v.52a.423.423,0,0,1-.423.423h-.958a2.039,2.039,0,0,0-1.982,1.515,10.384,10.384,0,0,1-.49,1.373c-.015.022-.022.052-.037.074h-.943a7.634,7.634,0,0,0,.921-3.645,7.7,7.7,0,1,0-12.139,6.273,6.636,6.636,0,0,0,.594,1.463c.052.1.1.193.156.282.074.126.156.238.23.356a2.406,2.406,0,0,0-.238.126l-1.678-.668a2.039,2.039,0,0,0-.594-1.73,9.223,9.223,0,0,1-.987-1.158,2.085,2.085,0,0,0-2.391-.757l-.765.29a.436.436,0,0,1-.534-.267l-.178-.483a.421.421,0,0,1,.253-.542l.713-.26a2.089,2.089,0,0,0,1.359-2.175,6.333,6.333,0,0,1-.045-.75c0-.245.015-.483.037-.72a2.086,2.086,0,0,0-1.359-2.146l-.72-.252a.428.428,0,0,1-.245-.549l.171-.483a.436.436,0,0,1,.534-.267l.743.275a2.089,2.089,0,0,0,2.391-.75,8.808,8.808,0,0,1,.98-1.18,2.024,2.024,0,0,0,.334-2.487l-.386-.683a.426.426,0,0,1,.156-.587l.438-.252a.435.435,0,0,1,.587.149l.408.713a2.073,2.073,0,0,0,2.324.958,7.253,7.253,0,0,1,2.168-.282c.03,0,.141.007.171.007a.827.827,0,0,0,.809-.676l.334-1.826a.436.436,0,0,1,.5-.341l.49.082a.449.449,0,0,1,.356.5l-.156.869a2.061,2.061,0,0,0,1.136,2.22,10.071,10.071,0,0,1,1.284.75,2.118,2.118,0,0,0,2.509-.111l.705-.586a.362.362,0,0,1,.579.052l.341.408a.414.414,0,0,1-.052.587l-.72.6a2.1,2.1,0,0,0-.549,2.45,8.074,8.074,0,0,1,.49,1.344,2.057,2.057,0,0,0,1.99,1.537h.958A.418.418,0,0,1,740.5,187.251Z" transform="translate(-11.398 -12.774)" fill="#3886b9"/>
    <g id="Group_2153" data-name="Group 2153" transform="translate(698.897 178.292)">
      <path id="Path_2045" data-name="Path 2045" d="M748.989,197.194a.818.818,0,0,1-.824.824h-20.09a5.134,5.134,0,0,0,.394,1.307c.007.015.007.022.015.037a3.775,3.775,0,0,0,.2.386c.074.126.148.252.23.371a.113.113,0,0,0,.03.045c.067.1.133.186.208.275a3.53,3.53,0,0,0,.349.393c.089.1.178.178.275.267.082.067.163.141.245.2a5.148,5.148,0,0,0,3.207,1.106h12.651a.828.828,0,1,1,0,1.656H733.227a6.844,6.844,0,0,1-5.412-2.65c-.082-.1-.163-.208-.238-.312s-.156-.23-.23-.356c-.052-.089-.1-.186-.156-.282A6.629,6.629,0,0,1,726.6,199a6.9,6.9,0,0,1-.238-1.8.8.8,0,0,1,.148-.468.817.817,0,0,1,.676-.356h20.981a.411.411,0,0,1,.134.015.205.205,0,0,1,.067.007c.045.015.089.03.126.045s.044.022.067.037a.194.194,0,0,1,.067.037A.819.819,0,0,1,748.989,197.194Z" transform="translate(-712.573 -196.37)" fill="#002f59"/>
      <path id="Path_2046" data-name="Path 2046" d="M755.016,203.868v12.718a.827.827,0,0,1-.824.824h-5.4a.73.73,0,0,1-.178-.022l-21.716-4.766a.663.663,0,0,1-.171-.059l-18.457-8.738a.805.805,0,0,1-.475-.742,5.235,5.235,0,0,1,6.556-5.071,4.492,4.492,0,0,1,.609.2l1.522.6,2.443.973,1.96.772,1.678.668.475.186,2.428.965,4.246,1.685.06.022.037-.022,2.754-1.544a.834.834,0,0,1,1.129.3.821.821,0,0,1-.3,1.129l-.193.111L730.7,205.5a1.769,1.769,0,0,1-1.544.119l-6.749-2.673-.624-.252-2.257-.9-5.182-2.049a3.583,3.583,0,0,0-4.87,2.821l17.87,8.464,21.53,4.722h4.492V204.329l-10.223-6.311-.193-.119a.823.823,0,0,1-.267-1.136.8.8,0,0,1,.7-.393.412.412,0,0,1,.134.015.205.205,0,0,1,.067.007c.045.015.089.03.126.045s.045.022.067.037.022.007.037.015l.03.022,9.525,5.887,1.255.772A.82.82,0,0,1,755.016,203.868Z" transform="translate(-707.79 -196.37)" fill="#002f59"/>
      <path id="Path_2047" data-name="Path 2047" d="M748.989,197.194a.818.818,0,0,1-.824.824h-20.09a5.134,5.134,0,0,0,.394,1.307c.007.015.007.022.015.037a3.775,3.775,0,0,0,.2.386c.074.126.148.252.23.371a.113.113,0,0,0,.03.045c.067.1.133.186.208.275a3.53,3.53,0,0,0,.349.393c.089.1.178.178.275.267.082.067.163.141.245.2a5.148,5.148,0,0,0,3.207,1.106h12.651a.828.828,0,1,1,0,1.656H733.227a6.844,6.844,0,0,1-5.412-2.65c-.082-.1-.163-.208-.238-.312s-.156-.23-.23-.356c-.052-.089-.1-.186-.156-.282A6.629,6.629,0,0,1,726.6,199a6.9,6.9,0,0,1-.238-1.8.8.8,0,0,1,.148-.468.817.817,0,0,1,.676-.356h20.981a.411.411,0,0,1,.134.015.205.205,0,0,1,.067.007c.045.015.089.03.126.045s.044.022.067.037a.194.194,0,0,1,.067.037A.819.819,0,0,1,748.989,197.194Z" transform="translate(-712.573 -196.37)" fill="#002f59"/>
      <path id="Path_2048" data-name="Path 2048" d="M777.7,200.44h-6.185a2.338,2.338,0,0,0-2.338,2.339v15.242a2.833,2.833,0,0,0,.037.438,2.349,2.349,0,0,0,2.3,1.908H777.7a2.351,2.351,0,0,0,2.346-2.346V202.779A2.345,2.345,0,0,0,777.7,200.44Zm.691,17.581a.689.689,0,0,1-.691.69h-6.185a.689.689,0,0,1-.69-.69V202.779a.694.694,0,0,1,.69-.69H777.7a.694.694,0,0,1,.691.69Z" transform="translate(-723.603 -197.418)" fill="#002f59"/>
      <path id="Path_2049" data-name="Path 2049" d="M753.952,204.9v11.426h-4.492L727.93,211.6l-17.87-8.464a3.584,3.584,0,0,1,4.87-2.821l7.439,2.947.623.252,6.749,2.673a1.769,1.769,0,0,0,1.544-.119l2.487-1.44h7.907a.828.828,0,1,0,0-1.656H729.029a5.148,5.148,0,0,1-3.207-1.106c-.082-.059-.163-.134-.245-.2-.1-.089-.186-.171-.275-.267a3.529,3.529,0,0,1-.349-.393c-.074-.089-.141-.178-.208-.275a.111.111,0,0,1-.03-.045c-.082-.119-.156-.245-.23-.371a3.8,3.8,0,0,1-.2-.386c-.007-.015-.007-.022-.015-.037a5.123,5.123,0,0,1-.393-1.307h19.852Z" transform="translate(-708.375 -196.942)" fill="#cdd7e8"/>
    </g>
    <path id="Path_2050" data-name="Path 2050" d="M687.68,215.112a3.979,3.979,0,1,1-3.979,3.979A3.978,3.978,0,0,1,687.68,215.112Z" transform="translate(-2.391 -22.906)" fill="#cdd7e8"/>
    <path id="Path_2051" data-name="Path 2051" d="M687.334,223.72a4.974,4.974,0,1,1,4.974-4.974A4.981,4.981,0,0,1,687.334,223.72Zm0-7.958a2.985,2.985,0,1,0,2.984,2.984A2.988,2.988,0,0,0,687.334,215.762Z" transform="translate(-2.045 -22.561)" fill="#002f59"/>
    <path id="Path_2052" data-name="Path 2052" d="M778.551,150.129a1.989,1.989,0,1,1-1.99,1.989A1.989,1.989,0,0,1,778.551,150.129Z" transform="translate(-26.607 -5.961)" fill="#002f59"/>
    <path id="Path_2053" data-name="Path 2053" d="M770.816,166.207a4.974,4.974,0,1,1-4.973,4.973A4.972,4.972,0,0,1,770.816,166.207Z" transform="translate(-23.846 -10.159)" fill="#cdd7e8"/>
    <path id="Path_2054" data-name="Path 2054" d="M770.47,176.8a5.968,5.968,0,1,1,5.968-5.969A5.976,5.976,0,0,1,770.47,176.8Zm0-9.948a3.979,3.979,0,1,0,3.979,3.979A3.983,3.983,0,0,0,770.47,166.857Z" transform="translate(-23.5 -9.814)" fill="#002f59"/>
  </g>
</svg>
