
<svg xmlns="http://www.w3.org/2000/svg" width="77.865" height="74" viewBox="0 0 77.865 74">
  <g id="Group_2149" data-name="Group 2149" transform="translate(-46.784 -122.53)" opacity="0.348" style="mix-blend-mode: normal;isolation: isolate">
    <path id="Path_1959" data-name="Path 1959" d="M100.625,146.909v-10.2H66.948a3.073,3.073,0,0,0-3.088,3.059v57.985a3.073,3.073,0,0,0,3.088,3.06h40.884a3.073,3.073,0,0,0,3.088-3.06V146.909Z" transform="translate(-6.046 -5.02)" fill="#cdd7e8"/>
    <path id="Path_1960" data-name="Path 1960" d="M152.011,152.646a2.207,2.207,0,1,1-2.2,2.207A2.206,2.206,0,0,1,152.011,152.646Z" transform="translate(-37.11 -10.83)" fill="#cdd7e8"/>
    <path id="Path_1961" data-name="Path 1961" d="M50.864,198.18a2.941,2.941,0,1,1-2.942,2.941A2.942,2.942,0,0,1,50.864,198.18Z" transform="translate(-0.403 -27.213)" fill="#cdd7e8"/>
    <path id="Path_1962" data-name="Path 1962" d="M120.776,136.71c4.022,4.02,6.275,6.275,10.3,10.3h-10.3Z" transform="translate(-26.642 -5.02)" fill="#b0b6bb"/>
    <path id="Path_1963" data-name="Path 1963" d="M150.038,132.588a1.471,1.471,0,1,1-2.079,0A1.471,1.471,0,0,1,150.038,132.588Z" transform="translate(-36.303 -3.409)" fill="#002f59"/>
    <path id="Path_1964" data-name="Path 1964" d="M128.979,122.961a1.47,1.47,0,1,1-2.079,0A1.469,1.469,0,0,1,128.979,122.961Z" transform="translate(-28.644 0)" fill="#002f59"/>
    <path id="Path_1965" data-name="Path 1965" d="M130.118,225.932a1.47,1.47,0,1,1-2.079,0A1.47,1.47,0,0,1,130.118,225.932Z" transform="translate(-29.054 -37.061)" fill="#002f59"/>
    <path id="Path_1966" data-name="Path 1966" d="M54.986,180.4a1.471,1.471,0,1,1-2.079,0A1.471,1.471,0,0,1,54.986,180.4Z" transform="translate(-2.015 -20.648)" fill="#002f59"/>
    <path id="Path_1967" data-name="Path 1967" d="M130.669,147.336h-10.3a.734.734,0,0,1-.734-.734v-10.3a.735.735,0,1,1,1.471,0v9.56h9.559a.735.735,0,0,1,0,1.47Z" transform="translate(-26.242 -4.617)" fill="#002f59"/>
    <path id="Path_1968" data-name="Path 1968" d="M107.429,201.147H66.545a3.811,3.811,0,0,1-3.824-3.789v-58a3.811,3.811,0,0,1,3.824-3.789h33.677a.739.739,0,0,1,.521.214l3.737,3.7,6.556,6.5a.725.725,0,0,1,.216.516v50.856A3.811,3.811,0,0,1,107.429,201.147ZM66.545,137.03a2.344,2.344,0,0,0-2.354,2.33v58a2.346,2.346,0,0,0,2.354,2.332h40.884a2.345,2.345,0,0,0,2.353-2.332V146.8c-2.5-2.472-4.315-4.274-6.341-6.284l-3.522-3.489Z" transform="translate(-5.642 -4.617)" fill="#002f59"/>
    <path id="Path_1969" data-name="Path 1969" d="M81.387,146.15H72.563a.735.735,0,0,1,0-1.471h8.824a.735.735,0,1,1,0,1.471Z" transform="translate(-9.017 -7.96)" fill="#002f59"/>
    <path id="Path_1970" data-name="Path 1970" d="M81.387,152.979H72.563a.735.735,0,0,1,0-1.47h8.824a.735.735,0,1,1,0,1.47Z" transform="translate(-9.017 -10.415)" fill="#002f59"/>
    <path id="Path_1971" data-name="Path 1971" d="M88.74,159.811H72.563a.736.736,0,0,1,0-1.472H88.74a.736.736,0,0,1,0,1.472Z" transform="translate(-9.036 -12.869)" fill="#002f59"/>
    <path id="Path_1972" data-name="Path 1972" d="M88.74,166.64H72.563a.736.736,0,0,1,0-1.472H88.74a.736.736,0,0,1,0,1.472Z" transform="translate(-9.036 -15.323)" fill="#002f59"/>
    <path id="Path_1973" data-name="Path 1973" d="M101.66,173.811h-29.1a.736.736,0,0,1,0-1.472h29.1a.736.736,0,1,1,0,1.472Z" transform="translate(-9.081 -17.9)" fill="#002f59"/>
    <path id="Path_1974" data-name="Path 1974" d="M101.66,180.64h-29.1a.736.736,0,0,1,0-1.472h29.1a.736.736,0,0,1,0,1.472Z" transform="translate(-9.081 -20.355)" fill="#002f59"/>
    <path id="Path_1975" data-name="Path 1975" d="M101.693,228.109H63.457a.735.735,0,1,1,0-1.47h38.236a.735.735,0,1,1,0,1.47Z" transform="translate(-5.642 -37.463)" fill="#002f59"/>
    <path id="Path_1976" data-name="Path 1976" d="M50.461,204.4a3.677,3.677,0,1,1,3.677-3.677A3.681,3.681,0,0,1,50.461,204.4Zm0-5.882a2.206,2.206,0,1,0,2.207,2.2A2.208,2.208,0,0,0,50.461,198.514Z" transform="translate(0 -26.813)" fill="#002f59"/>
    <path id="Path_1977" data-name="Path 1977" d="M151.607,157.392a2.941,2.941,0,1,1,2.942-2.942A2.944,2.944,0,0,1,151.607,157.392Zm0-4.412a1.471,1.471,0,1,0,1.471,1.47A1.473,1.473,0,0,0,151.607,152.98Z" transform="translate(-36.706 -10.425)" fill="#002f59"/>
    <path id="Path_1978" data-name="Path 1978" d="M110.751,210.11l-2.456,9,9-2.455-1.637-4.912Z" transform="translate(-22.141 -31.611)" fill="#cdd7e8"/>
    <path id="Path_1979" data-name="Path 1979" d="M152.565,168.3l-2.455,2.456,3.273,3.273,3.274,3.275h0l2.455-2.456Z" transform="translate(-37.217 -16.475)" fill="#cdd7e8"/>
    <path id="Path_1980" data-name="Path 1980" d="M153.91,167.1l6.548,6.548.818-.818a4.63,4.63,0,0,0-6.548-6.547Z" transform="translate(-38.563 -15.263)" fill="#3886b9"/>
    <path id="Path_1981" data-name="Path 1981" d="M119.7,200.083,121.335,205l8.863-8.864,9-9,6.689-6.687-3.274-3.275Z" transform="translate(-26.45 -19.799)" fill="#3886b9"/>
    <path id="Path_1982" data-name="Path 1982" d="M120.959,187.789l-8.862,8.863,4.91,1.637,22.918-22.918-3.273-3.273-6.688,6.688Z" transform="translate(-23.759 -17.949)" fill="#3886b9"/>
    <path id="Path_1983" data-name="Path 1983" d="M119.381,200.345a.577.577,0,0,0,.41-.17l22.919-22.917a.579.579,0,1,0-.819-.819l-22.917,22.918a.579.579,0,0,0,.408.988Z" transform="translate(-26.133 -19.441)" fill="#002f59"/>
    <path id="Path_1984" data-name="Path 1984" d="M156.339,178.907a.578.578,0,0,0,.409-.987l-6.547-6.549a.579.579,0,1,0-.818.819l6.547,6.548A.581.581,0,0,0,156.339,178.907Z" transform="translate(-36.9 -17.516)" fill="#002f59"/>
    <path id="Path_1985" data-name="Path 1985" d="M160.141,175.1a.579.579,0,0,0,.409-.988L154,167.568a.579.579,0,1,0-.818.819l6.548,6.547A.576.576,0,0,0,160.141,175.1Z" transform="translate(-38.246 -16.147)" fill="#002f59"/>
    <path id="Path_1986" data-name="Path 1986" d="M107.972,203.379a.579.579,0,0,1-.577-.579.538.538,0,0,1,.037-.2l2.442-8.954a.578.578,0,0,1,.15-.256l27.828-27.829a5.209,5.209,0,0,1,7.367,7.366l-3.274,3.275a.111.111,0,0,1-.023.019l-24.532,24.535a.594.594,0,0,1-.258.149l-9,2.455a.56.56,0,0,1-.152.021Zm33.153-28a.21.21,0,0,1,.021-.021l3.252-3.255a4.051,4.051,0,0,0-5.728-5.73l-3.274,3.276L119.7,185.342,110.95,194.1l-2.15,7.879,7.878-2.148Z" transform="translate(-22.094 -15.298)" fill="#002f59"/>
  </g>
</svg>
