
<svg xmlns="http://www.w3.org/2000/svg" width="87.29" height="74" viewBox="0 0 87.29 74">
  <g id="Group_2150" data-name="Group 2150" transform="translate(-243.616 -134.226)" opacity="0.35" style="mix-blend-mode: normal;isolation: isolate">
    <path id="Rectangle_1347" data-name="Rectangle 1347" d="M5.535,0H61.909a5.535,5.535,0,0,1,5.535,5.535V43.72a5.534,5.534,0,0,1-5.534,5.534H5.534A5.534,5.534,0,0,1,0,43.72V5.535A5.535,5.535,0,0,1,5.535,0Z" transform="matrix(0.964, -0.265, 0.265, 0.964, 243.616, 160.738)" fill="#3886b9"/>
    <path id="Rectangle_1348" data-name="Rectangle 1348" d="M3.812,0H7.484A3.813,3.813,0,0,1,11.3,3.813v7.158a3.813,3.813,0,0,1-3.813,3.813H3.812A3.812,3.812,0,0,1,0,10.971V3.812A3.812,3.812,0,0,1,3.812,0Z" transform="matrix(0.964, -0.265, 0.265, 0.964, 275.9, 169.523)" fill="#fff"/>
    <path id="Path_1987" data-name="Path 1987" d="M247.4,161.2l57.3-15.739a4.569,4.569,0,0,1,5.6,3.178L321.269,188.4a4.557,4.557,0,0,1-3.184,5.591l-57.3,15.739a4.568,4.568,0,0,1-5.6-3.178L244.22,166.786A4.558,4.558,0,0,1,247.4,161.2Zm57.616-14.6-57.3,15.739a3.372,3.372,0,0,0-2.353,4.135l10.961,39.766a3.382,3.382,0,0,0,4.142,2.351l57.3-15.739a3.372,3.372,0,0,0,2.354-4.135l-10.961-39.766a3.381,3.381,0,0,0-4.142-2.351Z" transform="translate(-0.082 -2.057)" fill="#002f59" fill-rule="evenodd"/>
    <path id="Path_1988" data-name="Path 1988" d="M291.894,181.717l4.907-1.351a3.768,3.768,0,0,1,2.866.362l0,0a3.763,3.763,0,0,1,1.776,2.276l2.275,8.27a3.793,3.793,0,0,1-2.64,4.645l-4.907,1.35a3.768,3.768,0,0,1-2.866-.362h0a3.768,3.768,0,0,1-1.778-2.279l-2.275-8.27a3.767,3.767,0,0,1,.361-2.867h0a3.766,3.766,0,0,1,2.276-1.777Zm5.265-.049-4.907,1.35a2.436,2.436,0,0,0-1.7,2.986l2.275,8.27a2.438,2.438,0,0,0,2.987,1.7l4.907-1.35a2.424,2.424,0,0,0,1.465-1.143h0a2.419,2.419,0,0,0,.23-1.842l-2.275-8.27a2.431,2.431,0,0,0-2.986-1.7Z" transform="translate(-13.181 -13.667)" fill="#002f59" fill-rule="evenodd"/>
    <rect id="Rectangle_1349" data-name="Rectangle 1349" width="11.297" height="1.349" transform="matrix(0.964, -0.265, 0.265, 0.964, 277.202, 174.428)" fill="#002f59"/>
    <rect id="Rectangle_1350" data-name="Rectangle 1350" width="11.297" height="1.35" transform="matrix(0.964, -0.265, 0.265, 0.964, 277.801, 176.623)" fill="#002f59"/>
    <path id="Path_1989" data-name="Path 1989" d="M283.2,186.306a.673.673,0,0,1-.341,1.3l-32.009-8.347a.671.671,0,0,1-.479-.472l-1.545-5.611a.675.675,0,0,1,1.3-.357l1.441,5.237Z" transform="translate(-0.964 -11.201)" fill="#002f59" fill-rule="evenodd"/>
    <path id="Path_1990" data-name="Path 1990" d="M309.449,160.087a.693.693,0,0,1,.409-.83.581.581,0,0,1,.719.471l8.4,35.209a6.027,6.027,0,0,1-.443,4.037l0,.006a4.765,4.765,0,0,1-2.78,2.5l-51.7,16.406a4.073,4.073,0,0,1-3.5-.51,5.255,5.255,0,0,1-2.171-3.21l-8.4-35.209a.693.693,0,0,1,.41-.83.581.581,0,0,1,.719.471l8.4,35.209a3.925,3.925,0,0,0,1.622,2.4,3.04,3.04,0,0,0,2.615.381l51.7-16.4a3.559,3.559,0,0,0,2.078-1.868l0,0a4.5,4.5,0,0,0,.328-3.014Z" transform="translate(-1.178 -13.631)" fill="#002f59" fill-rule="evenodd"/>
    <path id="Path_1991" data-name="Path 1991" d="M304.546,180.277a.673.673,0,0,1-.959-.944l22.959-23.269-1.441-5.237a.675.675,0,0,1,1.3-.358l1.544,5.612a.677.677,0,0,1-.172.65Z" transform="translate(-18.149 -5.115)" fill="#002f59" fill-rule="evenodd"/>
    <path id="Path_1992" data-name="Path 1992" d="M271.049,160.24l4.188-1.152-.547-1.989-4.188,1.152.547,1.989Zm4.784.083-4.666,1.284a1.1,1.1,0,0,1-1.354-.769l-.679-2.468a1.1,1.1,0,0,1,.769-1.354l4.666-1.284a1.1,1.1,0,0,1,1.354.769l.679,2.468a1.1,1.1,0,0,1-.77,1.354Z" transform="translate(-7.17 -6.029)" fill="#002f59" fill-rule="evenodd"/>
    <path id="Path_1993" data-name="Path 1993" d="M305.192,152.244l-4.666,1.284a1.1,1.1,0,0,1-1.354-.77l-.679-2.467a1.1,1.1,0,0,1,.769-1.355l4.666-1.284a1.1,1.1,0,0,1,1.355.77l.679,2.467a1.1,1.1,0,0,1-.77,1.355Zm-4.785-.084,4.188-1.152-.547-1.989-4.188,1.153Z" transform="translate(-15.432 -2.489)" fill="#002f59" fill-rule="evenodd"/>
    <path id="Path_1994" data-name="Path 1994" d="M271.075,142.4l20.311-5.589a4.121,4.121,0,0,1,5.146,2.685l1.865,6.778-4.878,1.342-1.666-6.052L273.1,146.723l1.666,6.052-4.879,1.342-1.865-6.778A4.122,4.122,0,0,1,271.075,142.4Z" transform="translate(-7.622 -0.45)" fill="#3886b9" fill-rule="evenodd"/>
    <path id="Path_1995" data-name="Path 1995" d="M270.741,141.594l20.311-5.589a5.076,5.076,0,0,1,3.692.378,4.482,4.482,0,0,1,2.284,2.779l2.044,7.429-6.18,1.7-1.666-6.053-17.449,4.8,1.666,6.052-6.18,1.7-2.043-7.429a4.478,4.478,0,0,1,.541-3.557,5.073,5.073,0,0,1,2.98-2.214Zm20.668-4.287L271.1,142.9a3.723,3.723,0,0,0-2.192,1.618,3.139,3.139,0,0,0-.385,2.492l1.686,6.127,3.577-.984-1.665-6.051,20.05-5.517,1.666,6.051,3.577-.984-1.686-6.127a3.138,3.138,0,0,0-1.605-1.944A3.725,3.725,0,0,0,291.41,137.307Z" transform="translate(-7.431 -0.296)" fill="#002f59" fill-rule="evenodd"/>
    <path id="Path_1996" data-name="Path 1996" d="M273.773,148.22a.421.421,0,0,1-.4.739l-2.742-1.483a.421.421,0,0,1,.4-.739Z" transform="translate(-7.432 -2.316)" fill="#002f59" fill-rule="evenodd"/>
    <path id="Path_1997" data-name="Path 1997" d="M297.589,142.194a.421.421,0,1,1-.723-.43l1.6-2.678a.421.421,0,0,1,.723.43Z" transform="translate(-14.697 -0.865)" fill="#002f59" fill-rule="evenodd"/>
    <path id="Path_1998" data-name="Path 1998" d="M353.483,159.184a2.182,2.182,0,1,1-2.181-2.179A2.183,2.183,0,0,1,353.483,159.184Z" transform="translate(-30.212 -6.354)" fill="#002f59"/>
    <path id="Path_1999" data-name="Path 1999" d="M360.526,139.929a4.363,4.363,0,1,1-4.363-4.363A4.362,4.362,0,0,1,360.526,139.929Z" transform="translate(-30.711 -0.249)" fill="#cdd7e8"/>
    <path id="Path_2000" data-name="Path 2000" d="M350.459,139.68a5.454,5.454,0,1,1,5.454,5.455A5.461,5.461,0,0,1,350.459,139.68Zm8.726,0a3.273,3.273,0,1,0-3.272,3.273A3.276,3.276,0,0,0,359.185,139.68Z" transform="translate(-30.462 0)" fill="#002f59"/>
  </g>
</svg>
