<svg
  width="38"
  height="38"
  viewBox="0 0 24 24"
  fill="none"
  xmlns="http://www.w3.org/2000/svg"
>
  <path
    d="M12 2C8.68629 2 6 4.68629 6 8C6 12.5313 10.0278 16.3337 11.2846 17.6888C11.6908 18.1228 12.3092 18.1228 12.7154 17.6888C13.9722 16.3337 18 12.5313 18 8C18 4.68629 15.3137 2 12 2ZM12 10.5C10.6193 10.5 9.5 9.38071 9.5 8C9.5 6.61929 10.6193 5.5 12 5.5C13.3807 5.5 14.5 6.61929 14.5 8C14.5 9.38071 13.3807 10.5 12 10.5Z"
    fill="rgb(0, 110, 255)"
  />
  <path
    d="M12 22L8 18H16L12 22Z"
    fill="rgb(0, 110, 255)"
  />
</svg>
